<svg width="16" height="16" viewBox="0 0 16 16" fill="none" xmlns="http://www.w3.org/2000/svg">
<g clip-path="url(#clip0_1_508)">
<path d="M3.91719 9.52964L3.40666 11.4355L1.5407 11.475C0.983055 10.4407 0.666748 9.25728 0.666748 7.99973C0.666748 6.78368 0.962488 5.63693 1.48671 4.6272H1.48711L3.14834 4.93176L3.87606 6.58302C3.72375 7.02706 3.64073 7.50373 3.64073 7.99973C3.64079 8.53804 3.7383 9.05381 3.91719 9.52964Z" fill="#FBBB00"/>
<path d="M15.2054 6.62988C15.2896 7.07349 15.3335 7.53163 15.3335 7.99984C15.3335 8.52486 15.2783 9.03699 15.1731 9.53099C14.8161 11.212 13.8834 12.6799 12.5912 13.7186L12.5908 13.7182L10.4984 13.6115L10.2022 11.7628C11.0596 11.26 11.7297 10.473 12.0827 9.53099H8.16138V6.62988H12.1399H15.2054Z" fill="#518EF8"/>
<path d="M12.5907 13.7182L12.5911 13.7186C11.3344 14.7288 9.73798 15.3332 8.00015 15.3332C5.20744 15.3332 2.77939 13.7722 1.54077 11.4751L3.91726 9.52979C4.53655 11.1826 6.13095 12.3592 8.00015 12.3592C8.80358 12.3592 9.55628 12.142 10.2022 11.7628L12.5907 13.7182Z" fill="#28B446"/>
<path d="M12.6808 2.35477L10.3051 4.29971C9.63665 3.88188 8.84649 3.64051 7.99995 3.64051C6.08844 3.64051 4.46422 4.87105 3.87595 6.58313L1.48697 4.62731H1.48657C2.70706 2.27419 5.16573 0.666504 7.99995 0.666504C9.77928 0.666504 11.4107 1.30032 12.6808 2.35477Z" fill="#F14336"/>
</g>
<defs>
<clipPath id="clip0_1_508">
<rect x="0.666748" y="0.666504" width="14.6667" height="14.6667" rx="7.33333" fill="white"/>
</clipPath>
</defs>
</svg>
